<mxfile host="Electron" modified="2024-05-15T22:03:38.233Z" agent="Mozilla/5.0 (X11; Linux x86_64) AppleWebKit/537.36 (KHTML, like Gecko) draw.io/24.2.5 Chrome/120.0.6099.109 Electron/28.1.0 Safari/537.36" etag="r09ESTw7Frf_wrdJw7Fw" version="24.2.5" type="device">
  <diagram name="Page-1" id="3yHXsXy3GaDdZvMfvjRr">
    <mxGraphModel dx="1674" dy="843" grid="1" gridSize="10" guides="1" tooltips="1" connect="1" arrows="1" fold="1" page="1" pageScale="1" pageWidth="1169" pageHeight="827" math="0" shadow="0">
      <root>
        <mxCell id="0" />
        <mxCell id="1" parent="0" />
        <mxCell id="IpjYhmgJ4ee4G2J0kLjC-6" value="" style="whiteSpace=wrap;html=1;aspect=fixed;fillColor=#000000;" vertex="1" parent="1">
          <mxGeometry x="525" y="354" width="120" height="120" as="geometry" />
        </mxCell>
        <mxCell id="IpjYhmgJ4ee4G2J0kLjC-7" value="" style="ellipse;whiteSpace=wrap;html=1;aspect=fixed;fillColor=none;strokeWidth=2.5;strokeColor=white" vertex="1" parent="1">
          <mxGeometry x="555" y="384" width="60" height="60" as="geometry" />
        </mxCell>
        <mxCell id="IpjYhmgJ4ee4G2J0kLjC-8" value="&lt;font style=&quot;font-size: 36px;&quot;&gt;A&lt;/font&gt;" style="text;html=1;align=center;verticalAlign=middle;whiteSpace=wrap;rounded=0;fontColor=white" vertex="1" parent="1">
          <mxGeometry x="555" y="401.5" width="60" height="25" as="geometry" />
        </mxCell>
        <mxCell id="IpjYhmgJ4ee4G2J0kLjC-9" value="" style="endArrow=none;html=1;rounded=0;strokeWidth=2.5;strokeColor=white;exitX=1;exitY=0.5;exitDx=0;exitDy=0;" edge="1" parent="1">
          <mxGeometry width="50" height="50" relative="1" as="geometry">
            <mxPoint x="615" y="413.76" as="sourcePoint" />
            <mxPoint x="635" y="413.76" as="targetPoint" />
          </mxGeometry>
        </mxCell>
        <mxCell id="IpjYhmgJ4ee4G2J0kLjC-10" value="" style="endArrow=none;html=1;rounded=0;strokeWidth=2.5;strokeColor=white;exitX=1;exitY=0.5;exitDx=0;exitDy=0;" edge="1" parent="1">
          <mxGeometry width="50" height="50" relative="1" as="geometry">
            <mxPoint x="535" y="413.76" as="sourcePoint" />
            <mxPoint x="555" y="413.76" as="targetPoint" />
          </mxGeometry>
        </mxCell>
      </root>
    </mxGraphModel>
  </diagram>
</mxfile>
